<svg id="Layer_1" data-name="Layer 1" xmlns="http://www.w3.org/2000/svg" xmlns:xlink="http://www.w3.org/1999/xlink" viewBox="0 0 268 226.23">
  <defs>
    <style>
      .cls-1 {
        fill: #ffad05;
      }
    </style>
  </defs>
  <title>constructionCosts</title>
  <image width="400" height="400" transform="scale(0.57)" xlink:href="JCrane-City-Cranes.png"/>
  <g>
    <path class="cls-1" d="M212.67,271.2a3.23,3.23,0,0,0-2.26,2.1,6.27,6.27,0,0,0,.16,3.87c1,3.19,2.66,4.42,5.05,3.69A11.79,11.79,0,0,0,219,279l.78,2.54a10.48,10.48,0,0,1-3.71,1.94,6.24,6.24,0,0,1-5.35-.43,8.36,8.36,0,0,1-3.32-4.93,9.23,9.23,0,0,1-.39-4.16,6.16,6.16,0,0,1,1.55-3.29,7.21,7.21,0,0,1,3.3-2,10.15,10.15,0,0,1,4.49-.27l-.22,2.77c-.61-.09-1.22-.15-1.82-.18A5.1,5.1,0,0,0,212.67,271.2Z" transform="translate(-98 -82)"/>
    <path class="cls-1" d="M233.83,270a8.17,8.17,0,0,1-.09,6,8,8,0,0,1-10.11,3.09,9.78,9.78,0,0,1-3.34-10.94,6.93,6.93,0,0,1,4.49-3.43,6.83,6.83,0,0,1,5.63.35A8.19,8.19,0,0,1,233.83,270Zm-10.45,3.2a6.2,6.2,0,0,0,2,3.33,3.33,3.33,0,0,0,3.09.38q3.63-1.11,2.16-5.93c-1-3.23-2.69-4.47-5.1-3.74a3.35,3.35,0,0,0-2.35,2.06A6.18,6.18,0,0,0,223.38,273.19Z" transform="translate(-98 -82)"/>
    <path class="cls-1" d="M251.68,272.37l-3.85,1.18-9.54-8.92-.09,0c.71,1.87,1.19,3.22,1.44,4l2.06,6.73-2.71.83L234.61,262l3.83-1.17,9.49,8.81.07,0q-1-2.74-1.35-3.9l-2.08-6.77,2.74-.84Z" transform="translate(-98 -82)"/>
    <path class="cls-1" d="M262.52,264.71a3.88,3.88,0,0,1-.46,3.48,6.33,6.33,0,0,1-3.54,2.31,9.58,9.58,0,0,1-4.32.38l-.86-2.82a18,18,0,0,0,2.73.16,7.73,7.73,0,0,0,1.92-.3,2.74,2.74,0,0,0,1.41-.85,1.37,1.37,0,0,0,.19-1.3,1.31,1.31,0,0,0-.47-.68,2.67,2.67,0,0,0-.88-.42,18.61,18.61,0,0,0-2.15-.4,9.23,9.23,0,0,1-2.33-.58,4.59,4.59,0,0,1-1.45-1,4.32,4.32,0,0,1-.56-5,5.57,5.57,0,0,1,3.23-2.18,9.09,9.09,0,0,1,2.21-.39,15.82,15.82,0,0,1,2.34.1l-.25,2.66a14.88,14.88,0,0,0-2.1-.08,6.28,6.28,0,0,0-1.53.27,2,2,0,0,0-1.2.8,1.41,1.41,0,0,0-.14,1.19,1.35,1.35,0,0,0,.4.64,2,2,0,0,0,.77.4,21.18,21.18,0,0,0,2.23.42,8,8,0,0,1,3.34,1.08A4,4,0,0,1,262.52,264.71Z" transform="translate(-98 -82)"/>
    <path class="cls-1" d="M271.85,266.2l-3,.93-3.61-11.78-3.89,1.19-.77-2.53,10.81-3.31.77,2.53-3.89,1.19Z" transform="translate(-98 -82)"/>
    <path class="cls-1" d="M279.29,257.92l1.68,5.49-3,.93L273.56,250l4.17-1.28a7.43,7.43,0,0,1,4.64-.25,4.41,4.41,0,0,1,2.38,5.25,4.86,4.86,0,0,1-1.49,2.15q4.69,3.82,6.11,4.94l-3.37,1-5.09-4.44Zm-.75-2.46,1-.3a3.89,3.89,0,0,0,2-1.13,1.8,1.8,0,0,0,.23-1.72,1.66,1.66,0,0,0-1.14-1.24,4.49,4.49,0,0,0-2.3.24l-.92.28Z" transform="translate(-98 -82)"/>
    <path class="cls-1" d="M298.44,242.42l2.84,9.26a5.58,5.58,0,0,1,.14,3,4.84,4.84,0,0,1-1.49,2.46,7.66,7.66,0,0,1-3,1.61,6.37,6.37,0,0,1-4.72-.1,5.23,5.23,0,0,1-2.71-3.41L286.7,246l3-.92,2.68,8.76a3.86,3.86,0,0,0,1.41,2.22,2.91,2.91,0,0,0,2.44.1,2.82,2.82,0,0,0,1.92-1.44,3.85,3.85,0,0,0-.08-2.65l-2.67-8.74Z" transform="translate(-98 -82)"/>
    <path class="cls-1" d="M308.74,241.8a3.22,3.22,0,0,0-2.26,2.1,6.23,6.23,0,0,0,.16,3.88c1,3.19,2.66,4.42,5.05,3.69a11.79,11.79,0,0,0,3.42-1.87l.78,2.54a10.48,10.48,0,0,1-3.71,1.94,6.27,6.27,0,0,1-5.35-.43,8.39,8.39,0,0,1-3.32-4.94,9.17,9.17,0,0,1-.39-4.15,6.13,6.13,0,0,1,1.55-3.29,7.22,7.22,0,0,1,3.29-2,9.91,9.91,0,0,1,4.5-.27l-.22,2.76a16.43,16.43,0,0,0-1.82-.17A5.38,5.38,0,0,0,308.74,241.8Z" transform="translate(-98 -82)"/>
    <path class="cls-1" d="M324.62,250.06l-3,.93L318,239.2l-3.88,1.19-.78-2.53,10.81-3.3.77,2.52L321,238.27Z" transform="translate(-98 -82)"/>
    <path class="cls-1" d="M330.71,248.2l-4.38-14.32,3-.92,4.38,14.31Z" transform="translate(-98 -82)"/>
    <path class="cls-1" d="M348.14,235a8.1,8.1,0,0,1-.09,6,8,8,0,0,1-10.1,3.09,8.19,8.19,0,0,1-3.44-5,8,8,0,0,1,.1-6,6.92,6.92,0,0,1,4.49-3.44,6.8,6.8,0,0,1,5.62.36A8.08,8.08,0,0,1,348.14,235Zm-10.44,3.2a6.25,6.25,0,0,0,2,3.33,3.36,3.36,0,0,0,3.1.39c2.42-.75,3.14-2.72,2.15-5.94s-2.68-4.47-5.09-3.73a3.36,3.36,0,0,0-2.36,2.05A6.26,6.26,0,0,0,337.7,238.21Z" transform="translate(-98 -82)"/>
    <path class="cls-1" d="M366,237.4l-3.86,1.18-9.54-8.92-.08,0c.71,1.88,1.19,3.22,1.43,4l2.07,6.73-2.72.83L348.92,227l3.83-1.17,9.5,8.82.07,0c-.67-1.83-1.12-3.13-1.36-3.9l-2.07-6.78,2.73-.83Z" transform="translate(-98 -82)"/>
  </g>
</svg>
