<svg id="Layer_1" data-name="Layer 1" xmlns="http://www.w3.org/2000/svg" viewBox="0 0 813.61 148.24">
  <defs>
    <style>
      .cls-1 {
        fill: #fff;
      }

      .cls-2 {
        fill: #ffad05;
      }

      .cls-3 {
        fill: #484349;
      }
    </style>
  </defs>
  <title>environmentHeading</title>
  <g>
    <g>
      <path class="cls-1" d="M118.06,161.27H93.39V118.43h24.67v7.45H102.47v9.4H117v7.44h-14.5v11.05h15.59Z" transform="translate(-93.39 -117.76)"/>
      <path class="cls-1" d="M135.93,161.27H127V118.43h24.55v7.45H135.93v11h14.53v7.41H135.93Z" transform="translate(-93.39 -117.76)"/>
      <path class="cls-1" d="M168.86,161.27h-8.94V118.43h24.55v7.45H168.86v11h14.53v7.41H168.86Z" transform="translate(-93.39 -117.76)"/>
      <path class="cls-1" d="M217.52,161.27H192.85V118.43h24.67v7.45H201.94v9.4h14.5v7.44h-14.5v11.05h15.58Z" transform="translate(-93.39 -117.76)"/>
      <path class="cls-1" d="M244.65,125.38a9.25,9.25,0,0,0-7.94,3.85q-2.81,3.86-2.81,10.74,0,14.33,10.75,14.32A34.08,34.08,0,0,0,255.58,152v7.61a30.27,30.27,0,0,1-11.78,2.2q-9.35,0-14.3-5.67t-4.95-16.27A26.63,26.63,0,0,1,227,128.2a17.62,17.62,0,0,1,7-7.7,20.66,20.66,0,0,1,10.68-2.68,28.86,28.86,0,0,1,12.54,3l-2.93,7.38a47.28,47.28,0,0,0-4.83-2A14.41,14.41,0,0,0,244.65,125.38Z" transform="translate(-93.39 -117.76)"/>
      <path class="cls-1" d="M281.21,161.27h-9.08V126H260.5v-7.56h32.34V126H281.21Z" transform="translate(-93.39 -117.76)"/>
      <path class="cls-1" d="M324.72,149.37a11,11,0,0,1-4.18,9.14q-4.17,3.35-11.61,3.34a27.25,27.25,0,0,1-12.13-2.58v-8.43a50.15,50.15,0,0,0,7.34,2.72,21.56,21.56,0,0,0,5.49.79,7.86,7.86,0,0,0,4.59-1.14,3.91,3.91,0,0,0,1.59-3.4,3.73,3.73,0,0,0-.7-2.24,8,8,0,0,0-2.07-1.89,52.88,52.88,0,0,0-5.55-2.9,26,26,0,0,1-5.89-3.55,13.24,13.24,0,0,1-3.13-3.95A11.28,11.28,0,0,1,297.3,130a11.07,11.07,0,0,1,3.85-8.94q3.86-3.25,10.65-3.25a25,25,0,0,1,6.37.79,43.54,43.54,0,0,1,6.34,2.23l-2.93,7.06a43.92,43.92,0,0,0-5.66-2,18.36,18.36,0,0,0-4.41-.55,5.86,5.86,0,0,0-4,1.2,4.23,4.23,0,0,0-.82,5.23,6.22,6.22,0,0,0,1.77,1.73,57.22,57.22,0,0,0,5.76,3q6,2.86,8.23,5.76A11.19,11.19,0,0,1,324.72,149.37Z" transform="translate(-93.39 -117.76)"/>
      <path class="cls-1" d="M387,139.79q0,10.64-5.28,16.35t-15.12,5.71q-9.84,0-15.11-5.71t-5.28-16.41q0-10.69,5.29-16.33t15.16-5.64q9.87,0,15.11,5.68T387,139.79Zm-31.26,0q0,7.19,2.72,10.81t8.14,3.63q10.88,0,10.87-14.44t-10.81-14.47c-3.61,0-6.34,1.21-8.17,3.65S355.69,135,355.69,139.79Z" transform="translate(-93.39 -117.76)"/>
      <path class="cls-1" d="M433.82,161.27H422.28l-18.64-32.41h-.26q.56,8.59.56,12.25v20.16h-8.12V118.43h11.46l18.6,32.08h.21q-.45-8.34-.44-11.8V118.43h8.17Z" transform="translate(-93.39 -117.76)"/>
      <path class="cls-1" d="M484.86,161.27H460.19V118.43h24.67v7.45H469.27v9.4h14.5v7.44h-14.5v11.05h15.59Z" transform="translate(-93.39 -117.76)"/>
      <path class="cls-1" d="M531.79,161.27H520.25l-18.64-32.41h-.26q.56,8.59.56,12.25v20.16h-8.12V118.43h11.46l18.6,32.08h.2q-.43-8.34-.43-11.8V118.43h8.17Z" transform="translate(-93.39 -117.76)"/>
      <path class="cls-1" d="M567,118.43h9.17l-14.56,42.84h-9.9l-14.53-42.84h9.17l8.06,25.49q.68,2.27,1.39,5.26c.48,2,.77,3.4.89,4.18a76.38,76.38,0,0,1,2.2-9.44Z" transform="translate(-93.39 -117.76)"/>
      <path class="cls-1" d="M581.56,161.27V118.43h9.09v42.84Z" transform="translate(-93.39 -117.76)"/>
      <path class="cls-1" d="M610.51,144.83v16.44h-9.08V118.43h12.48q8.73,0,12.92,3.18t4.19,9.66a11.39,11.39,0,0,1-2.08,6.72,13.77,13.77,0,0,1-5.89,4.61q9.66,14.44,12.6,18.67H625.57l-10.23-16.44Zm0-7.38h2.93q4.3,0,6.36-1.44a5.13,5.13,0,0,0,2.05-4.51,4.69,4.69,0,0,0-2.1-4.34c-1.39-.85-3.56-1.28-6.49-1.28h-2.75Z" transform="translate(-93.39 -117.76)"/>
      <path class="cls-1" d="M679.91,139.79q0,10.64-5.27,16.35t-15.12,5.71q-9.84,0-15.11-5.71t-5.28-16.41q0-10.69,5.29-16.33t15.16-5.64q9.87,0,15.1,5.68T679.91,139.79Zm-31.26,0q0,7.19,2.73,10.81t8.14,3.63q10.88,0,10.87-14.44t-10.81-14.47c-3.61,0-6.34,1.21-8.17,3.65S648.65,135,648.65,139.79Z" transform="translate(-93.39 -117.76)"/>
      <path class="cls-1" d="M726.79,161.27H715.25l-18.64-32.41h-.26q.55,8.59.56,12.25v20.16h-8.12V118.43h11.46l18.6,32.08h.2q-.43-8.34-.43-11.8V118.43h8.17Z" transform="translate(-93.39 -117.76)"/>
      <path class="cls-1" d="M755.71,161.27l-10.32-33.61h-.26q.55,10.26.56,13.68v19.93h-8.12V118.43h12.36l10.14,32.76h.18L771,118.43h12.36v42.84h-8.47V141c0-1,0-2.06.05-3.31s.16-4.57.39-10h-.26l-11,33.55Z" transform="translate(-93.39 -117.76)"/>
      <path class="cls-1" d="M818.81,161.27H794.14V118.43h24.67v7.45H803.22v9.4h14.51v7.44H803.22v11.05h15.59Z" transform="translate(-93.39 -117.76)"/>
      <path class="cls-1" d="M865.74,161.27H854.2l-18.63-32.41h-.27q.57,8.59.56,12.25v20.16h-8.11V118.43H839.2l18.6,32.08H858q-.43-8.34-.44-11.8V118.43h8.17Z" transform="translate(-93.39 -117.76)"/>
      <path class="cls-1" d="M893.05,161.27H884V126H872.34v-7.56h32.34V126H893.05Z" transform="translate(-93.39 -117.76)"/>
    </g>
    <g>
      <path class="cls-2" d="M114.58,264.78H105.5V191.25H93.87V175.5h32.34v15.75H114.58Z" transform="translate(-93.39 -117.76)"/>
      <path class="cls-2" d="M132.8,264.78V175.5h9.09v89.28Z" transform="translate(-93.39 -117.76)"/>
      <path class="cls-2" d="M190.66,264.78H179.12l-18.63-67.54h-.26q.56,17.89.55,25.52v42h-8.11V175.5h11.45l18.61,66.87h.2q-.44-17.42-.44-24.61V175.5h8.17Z" transform="translate(-93.39 -117.76)"/>
      <path class="cls-2" d="M214.78,212.26l8.93-36.76h9.79L219.29,230v34.75h-9V230.64l-14.2-55.14h9.84Z" transform="translate(-93.39 -117.76)"/>
      <path class="cls-2" d="M289.57,264.78h-9.05V226.25h-17v38.53h-9.09V175.5h9.09v35h17v-35h9.05Z" transform="translate(-93.39 -117.76)"/>
      <path class="cls-2" d="M339.26,220q0,22.15-5.28,34.07T318.87,266q-9.84,0-15.12-11.91t-5.27-34.2q0-22.29,5.29-34t15.16-11.76q9.87,0,15.1,11.85T339.26,220ZM308,220q0,15,2.72,22.53t8.15,7.57q10.86,0,10.87-30.1t-10.81-30.17q-5.43,0-8.18,7.6T308,220Z" transform="translate(-93.39 -117.76)"/>
      <path class="cls-2" d="M383,175.5v57.77a63.38,63.38,0,0,1-2.13,17.34q-2.12,7.45-6.13,11.42a13,13,0,0,1-9.5,4q-8.25,0-12.83-8.82T347.84,233V175.5h9.06v54.65q0,10.32,2,15.15c1.33,3.21,3.52,4.82,6.59,4.82s5.12-1.62,6.46-4.85,2-8.32,2-15.24V175.5Z" transform="translate(-93.39 -117.76)"/>
      <path class="cls-2" d="M418.77,240q0,12.09-4.17,19.05T403,266a16.54,16.54,0,0,1-12.13-5.37V243a39.68,39.68,0,0,0,7.34,5.68,11.56,11.56,0,0,0,5.49,1.65,5.22,5.22,0,0,0,4.59-2.38q1.59-2.38,1.59-7.09a14.29,14.29,0,0,0-.7-4.67,15.49,15.49,0,0,0-2.06-3.94,57.2,57.2,0,0,0-5.56-6,33.58,33.58,0,0,1-5.89-7.39,34.09,34.09,0,0,1-3.13-8.25,45.83,45.83,0,0,1-1.17-11q0-11.85,3.85-18.63t10.65-6.77a13.22,13.22,0,0,1,6.37,1.64,33.25,33.25,0,0,1,6.34,4.65l-2.92,14.71a33.28,33.28,0,0,0-5.67-4.09,9.62,9.62,0,0,0-4.41-1.16,4.33,4.33,0,0,0-4,2.51,13.47,13.47,0,0,0-1.37,6.53,15.43,15.43,0,0,0,.55,4.37,12.54,12.54,0,0,0,1.77,3.6,59.35,59.35,0,0,0,5.76,6.26,34,34,0,0,1,8.23,12A42.57,42.57,0,0,1,418.77,240Z" transform="translate(-93.39 -117.76)"/>
      <path class="cls-2" d="M451.2,264.78H426.53V175.5H451.2V191H435.62v19.6h14.5v15.51h-14.5v23H451.2Z" transform="translate(-93.39 -117.76)"/>
    </g>
    <g>
      <path d="M474.07,226.2,468,210.26h4.55l3.07,9.08a16,16,0,0,1,.65,3.27h.08a14.35,14.35,0,0,1,.64-3.27l3.07-9.08h4.54l-6.07,15.94Z" transform="translate(-93.39 -117.76)"/>
      <path d="M498,221.47a4.4,4.4,0,0,1-1.7,3.73,8.48,8.48,0,0,1-5.1,1.28,16.54,16.54,0,0,1-3-.23,11.83,11.83,0,0,1-2.3-.69V222a15.56,15.56,0,0,0,2.73,1,10.82,10.82,0,0,0,2.67.38c1.58,0,2.37-.45,2.37-1.36a1.15,1.15,0,0,0-.31-.84,4.9,4.9,0,0,0-1.09-.73c-.51-.27-1.19-.58-2.05-.94a13.34,13.34,0,0,1-2.7-1.43,4.09,4.09,0,0,1-1.25-1.5,4.84,4.84,0,0,1-.4-2.09,3.76,3.76,0,0,1,1.65-3.28,8,8,0,0,1,4.67-1.17,13.21,13.21,0,0,1,5.6,1.26l-1.31,3.13c-.8-.34-1.55-.62-2.24-.84a7,7,0,0,0-2.12-.33c-1.29,0-1.93.35-1.93,1a1.25,1.25,0,0,0,.62,1,18.55,18.55,0,0,0,2.72,1.27,12.38,12.38,0,0,1,2.73,1.41,4.18,4.18,0,0,1,1.29,1.51A4.73,4.73,0,0,1,498,221.47Z" transform="translate(-93.39 -117.76)"/>
    </g>
    <g>
      <path class="cls-3" d="M531.88,264.74l-2.54-21.85H516.55L514,264.74h-8l12.38-92.18h9.09l12.42,92.18Zm-4.32-38.18q-3.52-29.7-4-33.59t-.63-6.15q-.8,8-4.53,39.74Z" transform="translate(-93.39 -117.76)"/>
      <path class="cls-3" d="M564.31,172.94h7.51l-11.92,91.8h-8.11l-11.9-91.8h7.51l6.6,54.63q.56,4.83,1.14,11.27c.39,4.29.63,7.28.73,8.95q.27-5.78,1.8-20.22Z" transform="translate(-93.39 -117.76)"/>
      <path class="cls-3" d="M596.43,264.74H576.24v-91.8h20.19v15.95H583.67v20.16h11.88V225H583.67v23.67h12.76Z" transform="translate(-93.39 -117.76)"/>
      <path class="cls-3" d="M611.19,229.52v35.22h-7.44v-91.8H614q7.14,0,10.58,6.81T628,200.44a55.19,55.19,0,0,1-1.71,14.41,24.51,24.51,0,0,1-4.82,9.89q7.92,31,10.32,40h-8.25l-8.38-35.22Zm0-15.83h2.39a5.55,5.55,0,0,0,5.21-3.07c1.12-2.06,1.68-5.28,1.68-9.68s-.57-7.45-1.72-9.29a5.8,5.8,0,0,0-5.31-2.76h-2.25Z" transform="translate(-93.39 -117.76)"/>
      <path class="cls-3" d="M657.65,264.74l-2.54-21.85H642.32l-2.54,21.85h-8l12.37-92.18h9.1l12.42,92.18Zm-4.32-38.18q-3.52-29.7-4-33.59c-.29-2.6-.51-4.65-.63-6.15q-.79,8-4.54,39.74Z" transform="translate(-93.39 -117.76)"/>
      <path class="cls-3" d="M683.39,213.19H697.3v47.6a23.09,23.09,0,0,1-6.37,4,16.76,16.76,0,0,1-6.1,1.16q-8,0-12.13-12.21t-4.18-35.07q0-22.23,4.85-34.67t13.47-12.43q5.4,0,10.41,5.65l-2.47,15.57q-3.84-5-8-5-4.81,0-7.72,8.48t-2.9,22.79q0,15,2.34,22.83t6.8,7.88a10.09,10.09,0,0,0,4.72-1.26V229.39h-6.64Z" transform="translate(-93.39 -117.76)"/>
      <path class="cls-3" d="M725.85,264.74h-20.2v-91.8h20.2v15.95H713.08v20.16H725V225H713.08v23.67h12.77Z" transform="translate(-93.39 -117.76)"/>
      <path class="cls-3" d="M774.66,264.74h-7.41V225.12H753.36v39.62h-7.44v-91.8h7.44v36h13.89v-36h7.41Z" transform="translate(-93.39 -117.76)"/>
      <path class="cls-3" d="M815.34,218.72q0,22.78-4.31,35T798.65,266q-8.07,0-12.38-12.24T782,218.59q0-22.92,4.33-35t12.42-12.09q8.07,0,12.36,12.19T815.34,218.72Zm-25.59,0q0,15.38,2.23,23.17t6.67,7.78q8.9,0,8.9-30.95t-8.85-31q-4.44,0-6.7,7.81T789.75,218.72Z" transform="translate(-93.39 -117.76)"/>
      <path class="cls-3" d="M851.16,172.94v59.4a81.25,81.25,0,0,1-1.74,17.84q-1.74,7.65-5,11.74a9.74,9.74,0,0,1-7.77,4.08q-6.76,0-10.51-9.07t-3.74-24.84V172.94h7.41v56.2c0,7.07.55,12.27,1.64,15.57s2.88,5,5.39,5,4.2-1.66,5.29-5,1.64-8.55,1.64-15.67V172.94Z" transform="translate(-93.39 -117.76)"/>
      <path class="cls-3" d="M880.45,239.25q0,12.44-3.42,19.59T867.52,266q-5.62,0-9.93-5.53V242.39a34.46,34.46,0,0,0,6,5.84,8.13,8.13,0,0,0,4.5,1.69,4.1,4.1,0,0,0,3.76-2.44q1.3-2.46,1.3-7.29a18.37,18.37,0,0,0-.57-4.8,17.82,17.82,0,0,0-1.69-4,57.79,57.79,0,0,0-4.55-6.22,34.14,34.14,0,0,1-4.82-7.6,40.76,40.76,0,0,1-2.57-8.47,58.78,58.78,0,0,1-1-11.31q0-12.18,3.16-19.15t8.72-7a9,9,0,0,1,5.21,1.7,28.72,28.72,0,0,1,5.2,4.77l-2.4,15.13a27.89,27.89,0,0,0-4.64-4.21,6.67,6.67,0,0,0-3.61-1.19q-2.11,0-3.24,2.58a16.89,16.89,0,0,0-1.13,6.71,19.14,19.14,0,0,0,.46,4.49,14.44,14.44,0,0,0,1.45,3.71,58.45,58.45,0,0,0,4.71,6.44,36.29,36.29,0,0,1,6.74,12.33A54.17,54.17,0,0,1,880.45,239.25Z" transform="translate(-93.39 -117.76)"/>
      <path class="cls-3" d="M907,264.74H886.8v-91.8H907v15.95H894.24v20.16h11.87V225H894.24v23.67H907Z" transform="translate(-93.39 -117.76)"/>
    </g>
  </g>
</svg>
