<svg id="Layer_1" data-name="Layer 1" xmlns="http://www.w3.org/2000/svg" viewBox="0 0 242.43 150.61">
  <defs>
    <style>
      .cls-1 {
        font-size: 72px;
        font-family: OpenSans-Semibold, Open Sans;
        font-weight: 700;
      }

      .cls-2 {
        fill: #ffad05;
        font-family: OpenSans-Extrabold, Open Sans;
      }

      .cls-3 {
        fill: #484349;
      }

      .cls-4 {
        fill: none;
        stroke: #ffad05;
        stroke-miterlimit: 10;
      }
    </style>
  </defs>
  <title>historyHeading</title>
  <text class="cls-1" transform="translate(0.26 61.7)">A <tspan class="cls-2" x="66.3" y="0">TINY</tspan></text>
  <g>
    <path d="M256.48,157.47h6.22c2.89,0,5,.42,6.26,1.26a4.43,4.43,0,0,1,1.93,4,4.83,4.83,0,0,1-.95,3.05,4.25,4.25,0,0,1-2.72,1.54v.14a5.38,5.38,0,0,1,3.24,1.64,4.93,4.93,0,0,1,1,3.32,5.35,5.35,0,0,1-2,4.42,8.44,8.44,0,0,1-5.48,1.6h-7.57Zm3.43,8.66h3.29a5.67,5.67,0,0,0,3.14-.68,2.61,2.61,0,0,0,1-2.32,2.3,2.3,0,0,0-1.07-2.13,6.65,6.65,0,0,0-3.39-.66h-3Zm0,2.78v6.64h3.64a5.39,5.39,0,0,0,3.25-.83,3,3,0,0,0,1.09-2.6,2.75,2.75,0,0,0-1.12-2.42,5.85,5.85,0,0,0-3.39-.79Z" transform="translate(-183.57 -82.38)"/>
    <path d="M275.86,178.43v-21h3.43v21Z" transform="translate(-183.57 -82.38)"/>
    <path d="M292.06,178.43h-3.42v-18h-6.17v-2.94h15.76v2.94h-6.17Z" transform="translate(-183.57 -82.38)"/>
    <path d="M327.67,167.92c0,3.41-.85,6.07-2.56,8a9.25,9.25,0,0,1-7.24,2.84q-4.75,0-7.29-2.82t-2.55-8c0-3.46.85-6.11,2.56-8s4.14-2.78,7.3-2.78a9.22,9.22,0,0,1,7.23,2.83Q327.67,162.79,327.67,167.92Zm-16,0a9.34,9.34,0,0,0,1.57,5.87,6.35,6.35,0,0,0,9.23,0c1-1.31,1.56-3.28,1.56-5.89a9.43,9.43,0,0,0-1.54-5.85,5.45,5.45,0,0,0-4.6-2,5.56,5.56,0,0,0-4.65,2A9.36,9.36,0,0,0,311.67,167.92Z" transform="translate(-183.57 -82.38)"/>
    <path d="M335.57,178.43h-3.4v-21H344v2.9h-8.43v6.55h7.9v2.91h-7.9Z" transform="translate(-183.57 -82.38)"/>
  </g>
  <g>
    <path class="cls-3" d="M215.19,232.41h-8.94L210.16,214H196.4l-3.92,18.44h-8.91l9-42.72h8.94L198,206.44h13.76l3.53-16.75h8.92Z" transform="translate(-183.57 -82.38)"/>
    <path class="cls-3" d="M225.47,232.41l9.12-42.72h8.91l-9.12,42.72Z" transform="translate(-183.57 -82.38)"/>
    <path class="cls-3" d="M270.82,219.79a11.79,11.79,0,0,1-4.33,9.65Q262.17,233,254.78,233q-6.47,0-10.4-2.62v-8a21.67,21.67,0,0,0,10.46,3.15,9,9,0,0,0,5.11-1.24,3.88,3.88,0,0,0,1.84-3.4,5.81,5.81,0,0,0-.39-2.21,6.28,6.28,0,0,0-1.13-1.76,29.87,29.87,0,0,0-3.62-3,19.52,19.52,0,0,1-5.67-5.73,12,12,0,0,1-1.64-6.11,12.7,12.7,0,0,1,1.81-6.73,12.22,12.22,0,0,1,5.16-4.62,17.2,17.2,0,0,1,7.7-1.65,23.65,23.65,0,0,1,11.6,2.89l-3.18,6.81a19.85,19.85,0,0,0-8.42-2.16,5.94,5.94,0,0,0-4,1.31,4.33,4.33,0,0,0-1.55,3.48,5.17,5.17,0,0,0,1,3.11,17.78,17.78,0,0,0,4.33,3.52,17.42,17.42,0,0,1,5.29,5.16A12.31,12.31,0,0,1,270.82,219.79Z" transform="translate(-183.57 -82.38)"/>
    <path class="cls-3" d="M291.56,232.41h-8.91l7.42-35.18H279.79l1.61-7.54h29.51l-1.61,7.54H299Z" transform="translate(-183.57 -82.38)"/>
    <path class="cls-3" d="M348.48,205a36.12,36.12,0,0,1-2.89,14.8,22.2,22.2,0,0,1-7.92,9.86A20.47,20.47,0,0,1,326.1,233q-7.49,0-11.67-4.3t-4.19-12a34.59,34.59,0,0,1,2.89-14.24,23.13,23.13,0,0,1,8-10A20.31,20.31,0,0,1,332.85,189q7.45,0,11.54,4.21T348.48,205Zm-16.36-8.44a9.47,9.47,0,0,0-6.49,2.67,17.86,17.86,0,0,0-4.63,7.35,29.8,29.8,0,0,0-1.68,10.14c0,2.86.65,5,1.95,6.49a6.92,6.92,0,0,0,5.47,2.19,9.6,9.6,0,0,0,6.45-2.54,16.74,16.74,0,0,0,4.54-7.19,31.31,31.31,0,0,0,1.64-10.43,9.76,9.76,0,0,0-1.9-6.42A6.6,6.6,0,0,0,332.12,196.56Z" transform="translate(-183.57 -82.38)"/>
    <path class="cls-3" d="M364.26,216l-3.48,16.39h-8.91l9-42.72h10.49q6.93,0,10.4,3t3.48,8.74a13,13,0,0,1-2.43,7.93,14.23,14.23,0,0,1-7,4.93l7.63,18.14h-9.7L367.74,216Zm1.55-7.36h2.28a9.47,9.47,0,0,0,6-1.67,6,6,0,0,0,2.13-5.08,4.49,4.49,0,0,0-1.39-3.6,6.56,6.56,0,0,0-4.36-1.2h-2.17Z" transform="translate(-183.57 -82.38)"/>
    <path class="cls-3" d="M405.08,207,416,189.69h10l-18.06,26.39-3.47,16.33h-8.86l3.48-16.33-6.9-26.39h9.12Z" transform="translate(-183.57 -82.38)"/>
  </g>
  <line class="cls-4" x1="0.43" y1="83.62" x2="60.43" y2="83.62"/>
  <line class="cls-4" x1="0.43" y1="90.12" x2="60.43" y2="90.12"/>
  <line class="cls-4" x1="168.43" y1="83.62" x2="228.43" y2="83.62"/>
  <line class="cls-4" x1="168.43" y1="90.12" x2="228.43" y2="90.12"/>
</svg>
