<svg id="Layer_1" data-name="Layer 1" xmlns="http://www.w3.org/2000/svg" xmlns:xlink="http://www.w3.org/1999/xlink" viewBox="0 0 761.22 810.97">
  <defs>
    <style>
      .cls-1 {
        fill: #484349;
      }

      .cls-2 {
        font-size: 72px;
        fill: #ffad05;
        font-family: OpenSans-Bold, Open Sans;
        font-weight: 700;
      }

      .cls-3 {
        fill: none;
        stroke: #ffad05;
        stroke-miterlimit: 10;
        stroke-width: 5px;
      }
    </style>
  </defs>
  <title>types</title>
  <g>
    <path class="cls-1" d="M67.81-243.84q0,18.75-7.9,28T36-206.58a44.48,44.48,0,0,1-8.55-.61V-218a31.29,31.29,0,0,0,7.64.91,26.84,26.84,0,0,0,11.08-2,14,14,0,0,0,6.64-6.21c1.54-2.83,2.42-6.71,2.65-11.67h-.52a14.81,14.81,0,0,1-5.82,5.74,18.37,18.37,0,0,1-8.25,1.65q-8.3,0-13.08-5.32T23-249.62q0-10.22,5.8-16.14t15.78-5.93a22.74,22.74,0,0,1,12.32,3.3,21.24,21.24,0,0,1,8.1,9.58A36.32,36.32,0,0,1,67.81-243.84Zm-23-17.07A7.94,7.94,0,0,0,38.32-258c-1.56,1.91-2.35,4.66-2.35,8.25a11.45,11.45,0,0,0,2.13,7.3c1.42,1.8,3.58,2.69,6.47,2.69a10,10,0,0,0,7-2.67,8.13,8.13,0,0,0,2.91-6.14,14,14,0,0,0-2.72-8.73A8.34,8.34,0,0,0,44.83-260.91Z" transform="translate(-22.78 271.95)"/>
    <path d="M126.49-207.45H113v-52.29H95.78v-11.21h48v11.21H126.49Z" transform="translate(-22.78 271.95)"/>
    <path d="M173.27-244.8l13.25-26.15H201L180-232.16v24.71H166.58v-24.28l-21.06-39.22h14.59Z" transform="translate(-22.78 271.95)"/>
    <path d="M252.89-251.14q0,10.24-6.41,15.68T228.26-230h-5.77v22.58H209v-63.5H229.3q11.56,0,17.57,5T252.89-251.14Zm-30.4,10.08h4.43c4.14,0,7.23-.82,9.29-2.46a8.57,8.57,0,0,0,3.08-7.14q0-4.74-2.58-7c-1.72-1.5-4.42-2.26-8.1-2.26h-6.12Z" transform="translate(-22.78 271.95)"/>
    <path d="M301.45-207.45H264.88v-63.5h36.57v11H278.34v14h21.5v11h-21.5v16.37h23.11Z" transform="translate(-22.78 271.95)"/>
    <path d="M352.18-225.08q0,8.6-6.19,13.55t-17.22,4.95a40.42,40.42,0,0,1-18-3.82v-12.51a73.72,73.72,0,0,0,10.88,4,32.26,32.26,0,0,0,8.14,1.17c3,0,5.22-.56,6.8-1.69a5.79,5.79,0,0,0,2.37-5,5.6,5.6,0,0,0-1-3.32,11.6,11.6,0,0,0-3.07-2.8,77.83,77.83,0,0,0-8.23-4.3,39.2,39.2,0,0,1-8.73-5.26,19.56,19.56,0,0,1-4.64-5.86,16.73,16.73,0,0,1-1.74-7.82q0-8.43,5.71-13.25T333-271.86a37.41,37.41,0,0,1,9.45,1.17,66,66,0,0,1,9.4,3.3l-4.34,10.47a63.4,63.4,0,0,0-8.41-2.91,27,27,0,0,0-6.54-.82,8.64,8.64,0,0,0-5.86,1.78,5.85,5.85,0,0,0-2,4.64,5.75,5.75,0,0,0,.82,3.11,9.07,9.07,0,0,0,2.63,2.56,79.79,79.79,0,0,0,8.54,4.45q8.9,4.26,12.2,8.54A16.66,16.66,0,0,1,352.18-225.08Z" transform="translate(-22.78 271.95)"/>
    <path d="M444.44-239.28q0,15.76-7.82,24.23t-22.41,8.47q-14.59,0-22.41-8.47T384-239.37q0-15.85,7.84-24.22t22.48-8.36q14.63,0,22.39,8.43T444.44-239.28Zm-46.35,0q0,10.64,4,16t12.08,5.39q16.11,0,16.11-21.41t-16-21.46q-8,0-12.12,5.41T398.09-239.28Z" transform="translate(-22.78 271.95)"/>
    <path d="M470.85-207.45H457.6v-63.5H494v11H470.85v16.38h21.54v11H470.85Z" transform="translate(-22.78 271.95)"/>
  </g>
  <text class="cls-2" transform="translate(0 127.4)">TINY HOUSES</text>
  <g>
    <image width="530" height="546" transform="translate(292.22 322.95) scale(0.26)" xlink:href="250-cob-house.jpg.png"/>
    <image width="357" height="357" transform="translate(440.22 323.95) scale(0.39)" xlink:href="tiny-vardo-10.jpeg.png"/>
    <image width="192" height="196" transform="translate(588.22 321.95) scale(0.72)" xlink:href="maxresdefault (1).jpg.png"/>
    <image width="718" height="658" transform="translate(229.22 438.95) scale(0.36)" xlink:href="img_14407839715123.jpeg.png"/>
    <image width="718" height="658" transform="translate(333.22 414.95) scale(0.4)" xlink:href="160929021040_hd.0.jpg.png"/>
    <image width="718" height="658" transform="translate(546.22 450.95) scale(0.3)" xlink:href="1200px-LakeUnionHouseboat.jpg.png"/>
    <image width="718" height="658" transform="translate(241.22 592.95) scale(0.28)" xlink:href="98a7b9ef5a1983a04983123c0c3bad02.jpg.png"/>
    <image width="718" height="658" transform="translate(366.22 569.95) scale(0.37)" xlink:href="Beautiful-A-Frame-Cabin-Design.jpg.png"/>
    <image width="718" height="658" transform="translate(547.22 593.95) scale(0.3)" xlink:href="bus_conversion_home_midwest_wanderers_1.jpg.png"/>
    <g>
      <polygon class="cls-3" points="538.15 322.95 579.22 364.01 579.22 422.08 538.15 463.14 480.08 463.14 439.02 422.08 439.02 364.01 480.08 322.95 538.15 322.95"/>
      <polygon class="cls-3" points="390.15 322.95 431.22 364.01 431.22 422.08 390.15 463.14 332.08 463.14 291.02 422.08 291.02 364.01 332.08 322.95 390.15 322.95"/>
      <polygon class="cls-3" points="686.15 322.95 727.22 364.01 727.22 422.08 686.15 463.14 628.08 463.14 587.02 422.08 587.02 364.01 628.08 322.95 686.15 322.95"/>
      <polygon class="cls-3" points="538.15 470.95 579.22 512.01 579.22 570.08 538.15 611.14 480.08 611.14 439.02 570.08 439.02 512.01 480.08 470.95 538.15 470.95"/>
      <polygon class="cls-3" points="390.15 470.95 431.22 512.01 431.22 570.08 390.15 611.14 332.08 611.14 291.02 570.08 291.02 512.01 332.08 470.95 390.15 470.95"/>
      <polygon class="cls-3" points="686.15 470.95 727.22 512.01 727.22 570.08 686.15 611.14 628.08 611.14 587.02 570.08 587.02 512.01 628.08 470.95 686.15 470.95"/>
      <polygon class="cls-3" points="538.15 618.95 579.22 660.01 579.22 718.08 538.15 759.14 480.08 759.14 439.02 718.08 439.02 660.01 480.08 618.95 538.15 618.95"/>
      <polygon class="cls-3" points="390.15 618.95 431.22 660.01 431.22 718.08 390.15 759.14 332.08 759.14 291.02 718.08 291.02 660.01 332.08 618.95 390.15 618.95"/>
      <polygon class="cls-3" points="686.15 618.95 727.22 660.01 727.22 718.08 686.15 759.14 628.08 759.14 587.02 718.08 587.02 660.01 628.08 618.95 686.15 618.95"/>
    </g>
  </g>
  <text class="cls-2" transform="translate(342.55 379)">1</text>
  <text class="cls-2" transform="translate(493.55 379)">2</text>
  <text class="cls-2" transform="translate(642.55 379)">3</text>
  <text class="cls-2" transform="translate(340.55 528)">4</text>
  <text class="cls-2" transform="translate(491.55 528)">5</text>
  <text class="cls-2" transform="translate(640.55 528)">6</text>
  <text class="cls-2" transform="translate(341.55 678)">7</text>
  <text class="cls-2" transform="translate(492.55 678)">8</text>
  <text class="cls-2" transform="translate(641.55 678)">9</text>
</svg>
