<svg id="Layer_1" data-name="Layer 1" xmlns="http://www.w3.org/2000/svg" viewBox="0 0 471.1 128.1">
  <defs>
    <style>
      .cls-1 {
        fill: #484349;
      }

      .cls-2 {
        fill: #ffad05;
      }
    </style>
  </defs>
  <title>typesHeading</title>
  <g>
    <g>
      <path class="cls-1" d="M275.81,102.16q0,18.75-7.9,28T244,139.42a44.48,44.48,0,0,1-8.55-.61V128a31.29,31.29,0,0,0,7.64.91,26.84,26.84,0,0,0,11.08-2,14,14,0,0,0,6.64-6.21c1.54-2.83,2.42-6.71,2.65-11.67h-.52a14.81,14.81,0,0,1-5.82,5.74,18.37,18.37,0,0,1-8.25,1.65q-8.29,0-13.08-5.32T231,96.38q0-10.22,5.8-16.14t15.78-5.93a22.74,22.74,0,0,1,12.32,3.3,21.24,21.24,0,0,1,8.1,9.58A36.32,36.32,0,0,1,275.81,102.16Zm-23-17.07A7.94,7.94,0,0,0,246.32,88c-1.56,1.91-2.35,4.66-2.35,8.25a11.45,11.45,0,0,0,2.13,7.3c1.42,1.8,3.58,2.69,6.47,2.69a10,10,0,0,0,7-2.67,8.13,8.13,0,0,0,2.91-6.14,14,14,0,0,0-2.72-8.73A8.34,8.34,0,0,0,252.83,85.09Z" transform="translate(-230.99 -74.05)"/>
      <path d="M334.49,138.55H321V86.26H303.78V75.05h48V86.26H334.49Z" transform="translate(-230.99 -74.05)"/>
      <path d="M381.27,101.2l13.25-26.15H409L388,113.84v24.71H374.58V114.27L353.52,75.05h14.59Z" transform="translate(-230.99 -74.05)"/>
      <path d="M460.89,94.86q0,10.24-6.41,15.68T436.26,116h-5.77v22.58H417V75.05H437.3q11.56,0,17.57,5T460.89,94.86Zm-30.4,10.08h4.43c4.14,0,7.23-.82,9.29-2.46a8.57,8.57,0,0,0,3.08-7.14q0-4.74-2.58-7c-1.72-1.5-4.42-2.26-8.1-2.26h-6.12Z" transform="translate(-230.99 -74.05)"/>
      <path d="M509.45,138.55H472.88V75.05h36.57v11H486.34v14h21.5v11h-21.5v16.37h23.11Z" transform="translate(-230.99 -74.05)"/>
      <path d="M560.18,120.92q0,8.6-6.19,13.55t-17.22,4.95a40.42,40.42,0,0,1-18-3.82V123.09a73.72,73.72,0,0,0,10.88,4,32.26,32.26,0,0,0,8.14,1.17c3,0,5.22-.56,6.8-1.69a5.79,5.79,0,0,0,2.37-5,5.6,5.6,0,0,0-1-3.32,11.6,11.6,0,0,0-3.07-2.8,77.83,77.83,0,0,0-8.23-4.3,39.2,39.2,0,0,1-8.73-5.26,19.56,19.56,0,0,1-4.64-5.86,16.73,16.73,0,0,1-1.74-7.82q0-8.43,5.71-13.25T541,74.14a37.41,37.41,0,0,1,9.45,1.17,66,66,0,0,1,9.4,3.3l-4.34,10.47a63.4,63.4,0,0,0-8.41-2.91,27,27,0,0,0-6.54-.82,8.64,8.64,0,0,0-5.86,1.78,5.85,5.85,0,0,0-2,4.64,5.75,5.75,0,0,0,.82,3.11,9.07,9.07,0,0,0,2.63,2.56,79.79,79.79,0,0,0,8.54,4.45q8.9,4.26,12.2,8.54A16.66,16.66,0,0,1,560.18,120.92Z" transform="translate(-230.99 -74.05)"/>
      <path d="M652.44,106.72q0,15.77-7.82,24.23t-22.41,8.47q-14.6,0-22.41-8.47T592,106.63q0-15.85,7.84-24.22t22.48-8.36q14.63,0,22.39,8.43T652.44,106.72Zm-46.35,0q0,10.64,4,16t12.08,5.39q16.11,0,16.11-21.41t-16-21.46q-8,0-12.12,5.41T606.09,106.72Z" transform="translate(-230.99 -74.05)"/>
      <path d="M678.85,138.55H665.6V75.05H702v11H678.85v16.38h21.54v11H678.85Z" transform="translate(-230.99 -74.05)"/>
    </g>
    <g>
      <path class="cls-2" d="M257.08,201.45h-10.9V159.12h-14v-9.07H271v9.07h-14Z" transform="translate(-230.99 -74.05)"/>
      <path class="cls-2" d="M279,201.45v-51.4h10.9v51.4Z" transform="translate(-230.99 -74.05)"/>
      <path class="cls-2" d="M348.38,201.45H334.53l-22.36-38.88h-.32q.67,10.29.67,14.69v24.19h-9.74v-51.4h13.75l22.32,38.5h.25q-.53-10-.53-14.17V150.05h9.81Z" transform="translate(-230.99 -74.05)"/>
      <path class="cls-2" d="M377.31,171.21,388,150.05h11.74l-17,31.4v20H371.9V181.8l-17-31.75h11.81Z" transform="translate(-230.99 -74.05)"/>
      <path class="cls-2" d="M467.07,201.45H456.21V179.27H435.85v22.18H425v-51.4h10.9V170.2h20.36V150.05h10.86Z" transform="translate(-230.99 -74.05)"/>
      <path class="cls-2" d="M526.69,175.68q0,12.76-6.32,19.62t-18.14,6.85q-11.82,0-18.15-6.85t-6.32-19.69q0-12.84,6.34-19.6t18.2-6.77q11.83,0,18.12,6.82T526.69,175.68Zm-37.51,0q0,8.61,3.27,13t9.78,4.36q13,0,13-17.33t-13-17.37q-6.51,0-9.81,4.38T489.18,175.68Z" transform="translate(-230.99 -74.05)"/>
      <path class="cls-2" d="M579.18,150.05v33.26a19.14,19.14,0,0,1-2.55,10,16.63,16.63,0,0,1-7.36,6.58,26.39,26.39,0,0,1-11.39,2.28q-9.92,0-15.4-5.08T537,183.17V150.05h10.87v31.47c0,4,.79,6.86,2.39,8.71s4.23,2.78,7.91,2.78,6.15-.93,7.75-2.79,2.41-4.79,2.41-8.77v-31.4Z" transform="translate(-230.99 -74.05)"/>
      <path class="cls-2" d="M622.11,187.18a13.27,13.27,0,0,1-5,11q-5,4-13.94,4a32.78,32.78,0,0,1-14.56-3.09V188.93a59.48,59.48,0,0,0,8.81,3.27,25.73,25.73,0,0,0,6.59,1,9.31,9.31,0,0,0,5.5-1.37,4.68,4.68,0,0,0,1.92-4.08,4.54,4.54,0,0,0-.84-2.69,9.53,9.53,0,0,0-2.48-2.26,62.44,62.44,0,0,0-6.66-3.48,31.48,31.48,0,0,1-7.07-4.26,15.89,15.89,0,0,1-3.76-4.74,13.55,13.55,0,0,1-1.41-6.33q0-6.83,4.62-10.73t12.78-3.9a30.31,30.31,0,0,1,7.65.95,53.1,53.1,0,0,1,7.61,2.67l-3.51,8.48a51.6,51.6,0,0,0-6.81-2.36,22.11,22.11,0,0,0-5.29-.67,7,7,0,0,0-4.74,1.44,4.76,4.76,0,0,0-1.66,3.77,4.71,4.71,0,0,0,.67,2.51,7.41,7.41,0,0,0,2.13,2.07,65.09,65.09,0,0,0,6.91,3.61q7.2,3.43,9.88,6.91A13.45,13.45,0,0,1,622.11,187.18Z" transform="translate(-230.99 -74.05)"/>
      <path class="cls-2" d="M661,201.45H631.42v-51.4H661V159H642.32v11.29h17.41v8.93H642.32v13.25H661Z" transform="translate(-230.99 -74.05)"/>
      <path class="cls-2" d="M702.09,187.18a13.27,13.27,0,0,1-5,11q-5,4-13.94,4a32.78,32.78,0,0,1-14.56-3.09V188.93a59.48,59.48,0,0,0,8.81,3.27,25.73,25.73,0,0,0,6.59,1,9.31,9.31,0,0,0,5.5-1.37,4.68,4.68,0,0,0,1.92-4.08,4.54,4.54,0,0,0-.84-2.69,9.53,9.53,0,0,0-2.48-2.26,62.44,62.44,0,0,0-6.66-3.48,31.71,31.71,0,0,1-7.07-4.26,16.05,16.05,0,0,1-3.76-4.74,13.55,13.55,0,0,1-1.41-6.33q0-6.83,4.63-10.73t12.77-3.9a30.25,30.25,0,0,1,7.65.95,53.1,53.1,0,0,1,7.61,2.67l-3.51,8.48a51.6,51.6,0,0,0-6.81-2.36,22.11,22.11,0,0,0-5.29-.67,7,7,0,0,0-4.74,1.44,4.76,4.76,0,0,0-1.66,3.77,4.71,4.71,0,0,0,.67,2.51,7.41,7.41,0,0,0,2.13,2.07,65.09,65.09,0,0,0,6.91,3.61q7.2,3.43,9.88,6.91A13.45,13.45,0,0,1,702.09,187.18Z" transform="translate(-230.99 -74.05)"/>
    </g>
  </g>
</svg>
